<svg width="26" height="26" viewBox="0 0 26 26" fill="none" xmlns="http://www.w3.org/2000/svg">
<g clip-path="url(#clip0_7442_14220)">
<path fill-rule="evenodd" clip-rule="evenodd" d="M12.7446 16.9824C13.686 16.9824 14.6181 16.797 15.4878 16.4367C16.3576 16.0765 17.1478 15.5485 17.8135 14.8828C18.4791 14.2171 19.0072 13.4269 19.3674 12.5572C19.7277 11.6874 19.9131 10.7553 19.9131 9.81388C19.9131 8.8725 19.7277 7.94033 19.3674 7.07061C19.0072 6.20088 18.4791 5.41063 17.8135 4.74497C17.1478 4.07931 16.3576 3.55128 15.4878 3.19103C14.6181 2.83077 13.686 2.64535 12.7446 2.64535C10.8434 2.64535 9.02001 3.40061 7.67565 4.74497C6.33129 6.08933 5.57603 7.91267 5.57603 9.81388C5.57603 11.7151 6.33129 13.5384 7.67565 14.8828C9.02001 16.2272 10.8434 16.9824 12.7446 16.9824ZM22.3026 9.81388C22.3034 11.4564 21.8808 13.0713 21.0755 14.5028C20.2702 15.9343 19.1094 17.134 17.7052 17.986L18.6291 23.0597L19.1166 25.7439L16.5311 24.8774L12.7446 23.6093L8.95799 24.8774L6.37254 25.7439L6.86 23.0613L7.78394 17.9844C6.35748 17.1183 5.18265 15.8938 4.37631 14.4327C3.56996 12.9716 3.16022 11.3249 3.18783 9.6563C3.21544 7.98771 3.67945 6.35543 4.53369 4.92183C5.38794 3.48823 6.60264 2.30327 8.05698 1.48482C9.51132 0.666378 11.1546 0.242976 12.8234 0.256734C14.4921 0.270491 16.1282 0.720928 17.5688 1.56324C19.0095 2.40555 20.2045 3.61037 21.035 5.05787C21.8655 6.50536 22.3025 8.14507 22.3026 9.81388ZM9.95999 19.3719H15.5291L16.0421 22.1947L13.5028 21.3441L12.7446 21.0892L11.9863 21.3441L9.44704 22.1947L9.95999 19.3719ZM15.1341 9.81388C15.1341 10.4476 14.8823 11.0554 14.4342 11.5035C13.9861 11.9516 13.3783 12.2034 12.7446 12.2034C12.1108 12.2034 11.503 11.9516 11.0549 11.5035C10.6068 11.0554 10.3551 10.4476 10.3551 9.81388C10.3551 9.18015 10.6068 8.57236 11.0549 8.12424C11.503 7.67612 12.1108 7.42437 12.7446 7.42437C13.3783 7.42437 13.9861 7.67612 14.4342 8.12424C14.8823 8.57236 15.1341 9.18015 15.1341 9.81388ZM17.5236 9.81388C17.5236 11.0814 17.0201 12.2969 16.1238 13.1932C15.2276 14.0894 14.012 14.5929 12.7446 14.5929C11.4771 14.5929 10.2615 14.0894 9.36529 13.1932C8.46905 12.2969 7.96554 11.0814 7.96554 9.81388C7.96554 8.54641 8.46905 7.33085 9.36529 6.43461C10.2615 5.53837 11.4771 5.03486 12.7446 5.03486C14.012 5.03486 15.2276 5.53837 16.1238 6.43461C17.0201 7.33085 17.5236 8.54641 17.5236 9.81388Z" fill="#D1A873"/>
</g>
<defs>
<clipPath id="clip0_7442_14220">
<rect width="25.4881" height="25.4881" fill="white" transform="translate(0 0.25592)"/>
</clipPath>
</defs>
</svg>